<svg xmlns="http://www.w3.org/2000/svg" viewBox="0 0 500 520" fill="#c0392b" stroke="none">
  <!-- Texas state outline traced from geographic coordinates -->
  <path d="
    M 141 5 L 253 5
    L 253 104

    L 258 106 L 265 110 L 272 114 L 280 116
    L 288 118 L 296 122 L 305 126 L 314 128
    L 324 128 L 334 126 L 342 124 L 350 124
    L 358 126 L 365 128 L 372 130 L 380 132
    L 388 130 L 394 128 L 400 130 L 406 132
    L 412 134 L 418 136 L 424 138 L 432 140
    L 440 142 L 448 142 L 456 140 L 462 140
    L 468 142 L 474 144

    L 476 148 L 478 154 L 480 162
    L 482 172 L 484 182 L 486 192
    L 487 202 L 487 214
    L 486 224 L 484 234 L 482 244
    L 481 254 L 480 264 L 480 274
    L 481 284 L 482 292 L 481 300
    L 480 308 L 480 319

    L 474 322 L 466 326 L 458 330
    L 449 335 L 442 339 L 436 342
    L 430 346 L 424 350 L 419 354
    L 414 360 L 408 366 L 402 372
    L 396 378 L 390 384 L 384 388
    L 378 392 L 372 396 L 366 402
    L 362 408 L 359 414 L 356 422
    L 353 432 L 351 442 L 350 452
    L 350 462 L 349 472 L 348 482
    L 348 492 L 350 497

    L 344 496 L 338 490 L 330 482
    L 322 476 L 314 470 L 306 464
    L 298 456 L 290 448 L 282 442
    L 272 434 L 264 428 L 256 422
    L 248 416 L 240 408 L 234 400
    L 228 392 L 222 384 L 219 376
    L 216 368 L 214 358 L 212 350
    L 210 342 L 206 336 L 200 330
    L 194 326 L 186 324 L 178 326
    L 170 332 L 164 340

    L 158 346 L 150 350 L 144 354
    L 140 357 L 138 354 L 134 348
    L 128 342 L 122 338 L 118 336
    L 122 330 L 128 324 L 132 318
    L 134 310

    L 128 306 L 122 300 L 116 296
    L 110 292 L 104 290 L 98 290
    L 92 292 L 88 296 L 86 300
    L 82 296 L 78 290 L 72 284
    L 66 278 L 60 272 L 54 264
    L 48 256 L 42 246 L 36 238
    L 28 230 L 22 224 L 16 220
    L 14 216

    L 28 214 L 48 214 L 68 214
    L 88 214 L 108 214 L 128 214 L 141 214

    L 141 5 Z
  "/>
</svg>
