<svg xmlns="http://www.w3.org/2000/svg" viewBox="0 0 400 380" fill="#c0392b" stroke="#c0392b" stroke-width="1">
  <!-- Texas state silhouette (filled) -->
  <path d="
    M 132 8 L 132 12 L 136 12 L 136 30 L 132 30 L 132 75
    L 122 75 L 122 80 L 108 80 L 108 92
    L 95 92 L 95 100
    L 65 100 L 65 106
    L 46 106 L 46 118
    L 22 118 L 22 128
    L 10 128 L 10 140
    L 16 148 L 26 158 L 36 172
    L 42 186 L 40 202 L 36 218
    L 44 234 L 54 248
    L 66 264 L 78 276
    L 90 290 L 100 304
    L 114 320 L 128 334
    L 144 346 L 162 355
    L 180 362 L 200 368
    L 218 365 L 236 355
    L 252 342 L 264 326
    L 275 310 L 285 294
    L 294 278 L 302 260
    L 310 242 L 318 226
    L 326 210 L 335 194
    L 342 178 L 348 162
    L 354 145 L 358 128
    L 362 112 L 364 96
    L 362 80 L 354 68
    L 340 58 L 324 52
    L 306 48 L 286 44
    L 266 40 L 248 36
    L 230 32 L 214 28
    L 200 22 L 186 16
    L 172 10 L 158 6
    L 144 4 L 132 8 Z
  "/>
  <!-- "Texas" text inside the state -->
  <text x="100" y="210" font-family="Georgia, 'Times New Roman', serif" font-style="italic" font-size="72" font-weight="700" fill="#ffffff" stroke="none">Texas</text>
</svg>
