<svg xmlns="http://www.w3.org/2000/svg" viewBox="0 0 500 520" fill="#c0392b" stroke="none">
  <!-- Texas state silhouette -->
  <path d="
    M 141 5 L 253 5
    L 253 104

    L 258 106 L 265 110 L 272 114 L 280 116
    L 288 118 L 296 122 L 305 126 L 314 128
    L 324 128 L 334 126 L 342 124 L 350 124
    L 358 126 L 365 128 L 372 130 L 380 132
    L 388 130 L 394 128 L 400 130 L 406 132
    L 412 134 L 418 136 L 424 138 L 432 140
    L 440 142 L 448 142 L 456 140 L 462 140
    L 468 142 L 474 144

    L 477 150 L 479 158 L 481 168
    L 483 180 L 484 194 L 484 208
    L 483 220 L 482 230 L 480 240
    L 478 252 L 476 264 L 476 276
    L 478 288 L 480 298 L 480 308
    L 478 316 L 476 322

    L 470 325 L 462 330 L 454 336
    L 448 340 L 444 344 L 440 346
    L 434 348 L 426 350 L 420 354
    L 416 360 L 412 368 L 406 376
    L 398 384 L 390 390 L 384 394
    L 380 398 L 376 404 L 372 412
    L 368 420 L 364 430 L 360 440
    L 356 450 L 354 460 L 352 470
    L 350 478 L 348 486 L 346 494
    L 345 500

    L 340 498 L 332 492 L 324 484
    L 316 476 L 306 466 L 296 456
    L 286 446 L 276 438 L 266 430
    L 256 422 L 246 414 L 238 406
    L 230 396 L 224 386 L 220 376
    L 216 366 L 212 354 L 208 342
    L 204 332 L 198 324 L 192 318

    L 184 314 L 176 316 L 168 322
    L 160 332 L 154 342 L 150 348
    L 148 352

    L 144 348 L 138 340 L 132 332
    L 124 324 L 116 316 L 108 310
    L 100 304 L 92 298 L 86 294

    L 80 288 L 74 280 L 68 272
    L 62 264 L 56 254 L 48 244
    L 40 234 L 32 226 L 24 220
    L 16 216

    L 30 214 L 50 214 L 70 214
    L 90 214 L 110 214 L 130 214 L 141 214

    L 141 5 Z
  "/>
</svg>
