<svg xmlns="http://www.w3.org/2000/svg" viewBox="0 0 500 520" fill="#c0392b" stroke="none">
  <!-- Texas state silhouette -->
  <path d="
    M 141 5 L 253 5
    L 253 104

    L 258 106 L 265 110 L 272 114 L 280 116
    L 288 118 L 296 122 L 305 126 L 314 128
    L 324 128 L 334 126 L 342 124 L 350 124
    L 358 126 L 365 128 L 372 130 L 380 132
    L 388 130 L 394 128 L 400 130 L 406 132
    L 412 134 L 418 136 L 424 138 L 432 140
    L 440 142 L 448 142 L 456 140 L 462 140
    L 468 142 L 474 144

    L 476 150 L 478 160 L 480 170
    L 482 182 L 484 196 L 486 210
    L 487 224 L 488 238 L 488 252
    L 487 264 L 486 274 L 486 284
    L 487 294 L 488 304 L 488 312
    L 487 318 L 486 324

    L 484 328 L 480 332 L 476 334
    L 472 332 L 468 328 L 464 330
    L 460 334 L 458 340 L 454 344
    L 448 346 L 442 344 L 438 340
    L 436 344 L 438 350 L 440 356
    L 436 360 L 430 362 L 424 358
    L 420 354 L 416 356 L 414 362
    L 410 368 L 406 374 L 400 378
    L 394 380 L 390 384 L 388 390
    L 386 396 L 382 400 L 376 404
    L 372 410 L 368 418 L 364 426
    L 360 434 L 356 442 L 354 450
    L 352 458 L 350 466 L 348 474
    L 346 482 L 344 490 L 342 496
    L 340 502

    L 336 500 L 330 494 L 322 486
    L 314 478 L 306 468 L 296 458
    L 286 448 L 276 440 L 266 432
    L 256 424 L 246 416 L 238 408
    L 230 398 L 224 388 L 220 378
    L 216 368 L 212 356 L 208 344
    L 204 334 L 198 326 L 192 320

    L 184 316 L 176 318 L 168 324
    L 160 334 L 154 344 L 150 350
    L 148 354

    L 144 350 L 138 342 L 132 334
    L 124 326 L 116 318 L 108 312
    L 100 306 L 92 300 L 86 296

    L 80 290 L 74 282 L 68 274
    L 62 266 L 56 256 L 48 246
    L 40 236 L 32 228 L 24 222
    L 16 218

    L 30 216 L 50 216 L 70 216
    L 90 216 L 110 216 L 130 216 L 141 216

    L 141 5 Z
  "/>
</svg>
